<?xml version="1.0" standalone="no"?>
<!DOCTYPE svg PUBLIC "-//W3C//DTD SVG 20010904//EN"
 "http://www.w3.org/TR/2001/REC-SVG-20010904/DTD/svg10.dtd">
<svg version="1.0" xmlns="http://www.w3.org/2000/svg"
 width="2284.000000pt" height="1237.000000pt" viewBox="0 0 2284.000000 1237.000000"
 preserveAspectRatio="xMidYMid meet">

<g transform="translate(0.000000,1237.000000) scale(0.100000,-0.100000)"
fill="#000000" stroke="none">
<path d="M7064 11628 c-241 -354 -467 -686 -503 -738 -36 -52 -194 -284 -351
-515 -157 -231 -292 -429 -300 -441 -8 -12 -41 -59 -73 -105 l-57 -84 433 -5
434 -5 -86 -137 c-47 -76 -176 -280 -286 -455 -110 -174 -204 -325 -210 -335
-5 -9 -118 -187 -249 -395 -465 -734 -546 -862 -546 -867 0 -3 -18 -31 -41
-63 l-40 -58 570 -3 c314 -1 571 -5 571 -8 0 -5 -201 -291 -288 -409 -31 -43
-869 -1222 -918 -1291 -42 -60 -567 -800 -609 -859 -20 -27 -59 -80 -86 -117
-27 -36 -49 -69 -49 -72 0 -3 416 -6 925 -6 l925 0 0 115 0 115 -700 0 c-603
0 -700 2 -700 14 0 8 4 17 9 20 5 4 80 106 167 229 87 122 209 293 271 379 62
87 113 160 113 164 0 3 14 22 30 42 17 20 106 145 199 277 94 132 183 258 199
280 17 22 161 225 321 450 160 226 298 419 305 430 8 11 51 71 95 133 l81 113
0 114 0 115 -505 0 c-278 0 -505 2 -505 5 0 7 24 49 31 55 3 3 37 55 74 115
37 61 75 121 85 135 42 62 190 300 190 307 0 3 6 14 14 22 8 9 219 342 470
739 l456 724 0 109 0 109 -355 0 c-195 0 -355 3 -355 6 0 4 85 131 188 283
245 358 312 457 590 866 128 187 236 345 242 352 5 6 22 31 37 55 48 74 224
328 228 328 5 0 94 -129 671 -975 277 -407 511 -748 519 -758 8 -9 15 -20 15
-24 0 -3 18 -30 40 -59 22 -29 40 -58 40 -64 0 -7 -114 -10 -350 -10 l-350 0
0 -111 c0 -109 0 -111 33 -152 17 -23 35 -44 38 -47 3 -3 8 -12 12 -20 4 -8
40 -61 79 -117 40 -56 87 -121 103 -145 526 -754 640 -916 656 -934 10 -11 19
-23 19 -27 0 -6 139 -207 150 -217 3 -3 21 -29 39 -57 18 -29 36 -53 40 -53 4
0 48 28 98 63 l91 63 -144 204 c-80 113 -152 216 -162 230 -9 14 -182 262
-384 551 -203 289 -368 529 -368 533 0 3 189 7 421 8 l420 3 -112 165 c-62 91
-116 167 -121 168 -4 2 -8 8 -8 12 0 7 -276 417 -367 545 -12 17 -128 188
-259 380 -131 193 -241 352 -246 353 -4 2 -8 8 -8 13 0 5 -46 75 -102 156 -56
82 -124 182 -152 223 -27 41 -52 77 -55 80 -5 5 -38 52 -228 337 -35 51 -64
93 -67 93 -2 0 -201 -289 -442 -642z"/>
<path d="M14980 11872 c-19 -15 -51 -38 -71 -52 l-37 -24 50 -75 c62 -91 142
-257 158 -330 7 -29 10 -86 8 -126 -8 -127 -52 -178 -258 -297 -179 -104 -280
-227 -325 -393 -21 -80 -21 -256 0 -359 15 -72 86 -291 99 -303 3 -3 41 9 84
27 l78 32 -34 91 c-67 179 -88 350 -58 464 35 131 103 207 278 310 170 101
244 176 289 292 28 72 30 225 5 321 -22 82 -108 261 -178 367 l-54 83 -34 -28z"/>
<path d="M15555 11623 c-33 -24 -61 -48 -63 -52 -2 -5 19 -42 46 -83 136 -202
190 -389 150 -520 -17 -58 -84 -126 -179 -183 -46 -27 -86 -52 -89 -55 -3 -3
-17 -11 -31 -19 -68 -34 -215 -182 -203 -203 3 -4 1 -8 -4 -8 -13 0 -59 -115
-73 -180 -15 -71 -5 -296 16 -375 24 -89 78 -244 90 -262 4 -6 160 67 158 74
-1 5 -16 44 -33 88 -38 100 -70 254 -70 337 0 68 20 159 47 217 29 61 123 142
248 216 197 116 277 212 305 365 23 128 -14 294 -105 468 -52 97 -124 210
-139 215 -6 2 -38 -16 -71 -40z"/>
<path d="M12143 10611 l-72 -78 39 -38 c22 -21 37 -42 34 -46 -4 -7 45 -61
281 -309 34 -36 259 -274 500 -530 241 -256 471 -499 510 -540 40 -41 116
-122 171 -180 403 -429 935 -988 1013 -1065 l71 -69 0 857 0 857 -115 0 -115
0 0 -570 c0 -313 -3 -570 -7 -569 -5 0 -263 271 -575 602 -1124 1194 -1651
1752 -1657 1754 -3 1 -38 -33 -78 -76z"/>
<path d="M11604 10037 c-33 -34 -106 -111 -163 -172 -57 -60 -139 -146 -181
-190 -42 -44 -193 -204 -335 -355 -142 -151 -295 -313 -339 -360 -45 -47 -121
-128 -170 -180 -49 -52 -121 -129 -161 -170 -40 -41 -343 -363 -675 -715 -331
-352 -635 -674 -675 -715 -39 -41 -190 -201 -335 -355 -144 -154 -295 -314
-335 -355 -39 -41 -193 -203 -340 -360 -283 -301 -327 -348 -576 -610 -86 -91
-296 -313 -467 -495 l-312 -330 1648 -3 c906 -1 1653 0 1660 3 8 3 12 36 12
115 l0 110 -1391 0 c-791 0 -1389 4 -1387 9 2 7 653 699 1227 1306 37 39 151
160 255 270 104 110 221 234 261 275 88 92 738 782 847 900 44 47 117 123 162
170 46 47 314 330 596 630 282 300 547 581 589 625 75 79 494 523 703 745
l108 114 -57 59 c-32 32 -70 67 -84 77 l-26 19 -59 -62z"/>
<path d="M15310 8277 l0 -1193 466 -495 c257 -272 533 -564 614 -649 81 -85
304 -321 496 -525 191 -203 375 -398 409 -433 33 -35 62 -67 63 -73 2 -5 -541
-9 -1422 -9 l-1426 0 0 -115 0 -115 1697 0 1697 0 -40 43 c-22 23 -118 125
-214 227 -96 102 -209 221 -251 265 -42 44 -116 123 -165 175 -49 52 -128 135
-176 184 -49 49 -88 91 -88 94 0 3 -886 944 -1090 1157 -103 108 -226 238
-288 306 l-52 56 0 1146 0 1147 -115 0 -115 0 0 -1193z"/>
<path d="M11250 6680 l0 -960 990 0 990 0 0 960 0 960 -990 0 -990 0 0 -960z
m890 435 l0 -345 -360 0 -360 0 0 345 0 345 360 0 360 0 0 -345z m920 0 l0
-345 -360 0 -360 0 0 345 0 345 360 0 360 0 0 -345z m-920 -880 l0 -345 -360
0 -360 0 0 345 0 345 360 0 360 0 0 -345z m920 0 l0 -345 -360 0 -360 0 0 345
0 345 360 0 360 0 0 -345z"/>
<path d="M7370 2851 l0 -1221 125 0 125 0 0 856 c0 498 4 854 9 852 5 -1 172
-199 371 -438 200 -239 371 -444 381 -455 10 -11 101 -119 201 -240 101 -121
191 -229 200 -240 9 -11 100 -121 202 -243 l186 -224 0 1231 0 1231 -130 0
-130 0 -2 -862 -3 -861 -224 269 c-124 148 -233 278 -243 289 -10 11 -137 164
-284 340 -146 176 -277 330 -290 342 -13 12 -24 25 -24 28 0 4 -101 127 -272
330 -9 11 -57 69 -107 128 l-91 108 0 -1220z"/>
<path d="M12770 2852 l0 -1222 130 0 130 0 2 858 3 857 164 -197 c90 -109 168
-198 173 -198 4 0 8 -5 8 -10 0 -6 57 -79 127 -163 71 -83 135 -161 145 -172
9 -11 51 -62 93 -112 42 -51 82 -93 88 -93 5 0 7 -3 4 -6 -5 -5 111 -149 225
-279 9 -11 67 -81 129 -155 61 -74 117 -142 125 -150 8 -8 64 -76 125 -150 61
-74 115 -139 120 -144 5 -6 9 484 9 1217 l0 1227 -125 0 -125 0 0 -861 c0
-480 -4 -859 -9 -857 -4 2 -253 296 -552 653 -299 358 -563 673 -586 700 -23
28 -117 140 -209 250 -91 110 -172 207 -180 215 -12 12 -14 -161 -14 -1208z"/>
<path d="M21204 4035 c-4 -16 -15 -43 -25 -60 -9 -16 -101 -212 -204 -435
-103 -223 -207 -445 -230 -495 -24 -49 -86 -182 -138 -295 -127 -274 -429
-924 -478 -1028 -21 -46 -39 -85 -39 -88 0 -2 63 -3 140 -2 l141 3 128 275
128 275 565 3 565 2 124 -280 124 -280 138 0 c75 0 137 2 137 4 0 2 -14 35
-30 72 -17 37 -37 82 -45 98 -19 45 -245 559 -375 855 -61 140 -119 273 -129
295 -10 23 -35 79 -56 126 -20 47 -52 119 -70 160 -18 41 -89 203 -158 360
-125 285 -166 379 -191 435 l-14 30 -8 -30z m16 -624 c0 -4 94 -221 210 -481
115 -261 208 -475 206 -477 -1 -2 -201 -2 -443 -1 l-440 3 81 175 c45 96 146
315 226 487 123 267 160 335 160 294z"/>
<path d="M5919 3944 c-28 -60 -67 -143 -86 -184 -19 -41 -78 -167 -130 -280
-53 -113 -115 -248 -140 -300 -25 -52 -81 -174 -125 -270 -45 -96 -100 -215
-123 -265 -24 -49 -56 -119 -73 -155 -16 -36 -47 -101 -67 -145 -21 -44 -38
-86 -38 -92 0 -7 -4 -13 -7 -13 -4 0 -13 -15 -21 -32 -7 -18 -41 -93 -76 -166
-35 -74 -63 -136 -63 -138 0 -5 -98 -214 -116 -246 l-15 -28 144 0 145 0 16
40 c16 40 51 115 139 300 27 58 62 131 76 163 l26 57 564 0 563 0 124 -277
123 -278 140 -3 140 -3 -30 68 c-16 37 -36 81 -44 97 -7 17 -28 65 -46 106
-17 41 -44 102 -59 135 -15 33 -71 161 -125 285 -54 124 -108 248 -121 275
-13 28 -88 199 -168 382 -80 182 -154 351 -164 375 -11 24 -84 189 -162 368
-78 179 -144 327 -146 329 -2 2 -27 -45 -55 -105z m136 -721 c48 -109 113
-256 145 -328 32 -71 90 -201 128 -287 l70 -158 -445 0 c-266 0 -443 4 -441 9
16 45 445 961 449 961 4 0 46 -89 94 -197z"/>
<path d="M15953 3898 c-39 -84 -178 -382 -308 -663 -131 -280 -280 -602 -332
-715 -52 -113 -109 -234 -126 -270 -17 -36 -88 -189 -159 -340 l-128 -275 137
-3 c75 -1 140 1 144 5 4 4 64 130 133 278 l125 270 566 0 566 0 38 -85 c21
-47 49 -110 63 -140 13 -30 51 -117 84 -192 l59 -138 138 0 c75 0 137 2 137 5
0 6 -241 556 -280 640 -15 33 -79 177 -141 320 -61 143 -122 283 -135 310 -26
58 -222 505 -384 875 -61 140 -115 259 -119 263 -4 4 -40 -61 -78 -145z m121
-591 c27 -61 123 -277 213 -479 90 -202 163 -370 163 -373 0 -3 -198 -5 -440
-5 -312 0 -440 3 -440 11 0 6 7 23 15 37 8 15 99 212 203 437 223 484 224 485
231 485 3 0 28 -51 55 -113z"/>
<path d="M1285 3979 c-170 -23 -332 -88 -462 -186 -89 -67 -142 -128 -187
-213 -142 -273 -42 -584 246 -764 128 -79 228 -108 523 -151 99 -14 218 -35
265 -47 144 -34 264 -120 322 -230 33 -63 33 -183 -1 -251 -49 -100 -169 -192
-316 -243 -75 -27 -90 -28 -245 -29 -156 0 -170 2 -254 29 -98 32 -214 103
-267 163 -47 54 -77 128 -85 209 l-6 71 -102 -56 c-55 -32 -111 -64 -123 -71
-25 -16 -24 -24 12 -131 81 -237 344 -423 664 -469 114 -17 312 -7 421 20 217
55 410 187 505 345 95 159 105 358 25 522 -32 68 -107 160 -174 215 -146 120
-259 158 -626 212 -129 19 -257 42 -285 51 -117 40 -204 110 -269 219 -32 54
-36 67 -36 131 0 90 30 155 106 229 115 112 254 165 459 173 112 5 143 2 215
-16 119 -30 215 -78 286 -144 83 -77 115 -139 123 -238 l6 -79 120 66 c66 37
122 69 124 71 9 7 -17 110 -39 159 -113 250 -415 424 -758 438 -64 3 -148 1
-187 -5z"/>
<path d="M3640 3984 c-289 -35 -536 -152 -727 -346 -251 -255 -373 -591 -342
-941 19 -219 80 -394 202 -577 53 -80 257 -290 281 -290 8 0 16 -3 18 -8 7
-17 129 -89 210 -124 362 -156 783 -119 1111 99 69 45 272 231 263 241 -3 2 6
14 19 26 l24 21 -100 77 -101 78 -87 -89 c-47 -49 -120 -111 -161 -138 -78
-50 -230 -120 -280 -128 -8 -2 -49 -8 -90 -15 -110 -18 -274 -8 -385 25 -80
23 -225 90 -265 122 -149 118 -214 188 -284 309 -320 553 -2 1263 623 1389
113 23 315 16 416 -14 154 -46 295 -130 408 -243 l69 -69 51 45 c29 25 72 63
97 85 l45 39 -70 72 c-166 170 -378 285 -613 335 -75 15 -269 27 -332 19z"/>
<path d="M9700 2795 l0 -1165 416 0 c462 1 501 5 670 65 149 53 254 117 368
225 64 61 156 172 156 189 0 6 4 11 8 11 14 0 111 195 141 285 78 234 80 529
5 765 -132 420 -468 711 -894 775 -70 11 -196 15 -482 15 l-388 0 0 -1165z
m847 895 c208 -34 402 -149 526 -312 127 -168 187 -355 187 -584 0 -431 -252
-782 -635 -886 -71 -19 -112 -22 -377 -26 l-298 -4 0 911 0 911 268 0 c147 0
295 -5 329 -10z"/>
<path d="M11950 2795 l0 -1165 125 0 125 0 0 1165 0 1165 -125 0 -125 0 0
-1165z"/>
<path d="M16920 3955 c0 -3 83 -191 184 -418 101 -226 261 -583 354 -792 93
-209 179 -400 190 -425 12 -25 57 -126 100 -225 44 -99 96 -215 116 -258 20
-43 36 -80 36 -82 0 -2 17 -41 38 -87 21 -45 45 -98 52 -116 7 -18 16 -29 20
-25 4 4 60 127 125 273 217 488 336 755 362 810 14 30 52 116 85 190 33 74 70
158 83 186 13 27 41 90 63 140 42 95 334 749 357 799 l14 30 -136 3 c-75 1
-140 -1 -144 -5 -4 -4 -21 -42 -39 -83 -18 -41 -47 -106 -65 -145 -18 -38 -47
-104 -65 -145 -18 -41 -47 -106 -64 -145 -18 -38 -104 -230 -191 -425 -87
-195 -175 -391 -195 -435 -20 -44 -70 -154 -110 -245 -40 -91 -76 -168 -80
-173 -3 -4 -23 30 -42 75 -20 46 -52 117 -71 158 -19 41 -51 111 -70 155 -19
44 -51 115 -71 158 -20 42 -36 79 -36 82 0 3 -19 47 -43 98 -24 50 -106 232
-182 402 -76 171 -153 343 -172 383 -18 39 -33 74 -33 76 0 2 -22 52 -50 110
l-50 106 -135 0 c-74 0 -135 -2 -135 -5z"/>
<path d="M19470 2795 l0 -1165 125 0 125 0 0 1165 0 1165 -125 0 -125 0 0
-1165z"/>
<path d="M7203 855 c-159 -43 -272 -165 -304 -328 -33 -162 62 -350 216 -431
56 -29 67 -31 165 -31 115 0 146 10 208 68 l32 31 0 -47 0 -47 105 0 105 0 0
230 0 230 -195 0 -195 0 0 -80 0 -80 86 0 c84 0 85 0 78 -22 -13 -43 -36 -67
-82 -90 -57 -27 -161 -30 -207 -6 -115 61 -149 237 -69 360 67 104 233 105
330 2 l31 -32 69 69 69 70 -40 34 c-116 99 -267 136 -402 100z"/>
<path d="M9860 854 c-57 -15 -109 -50 -144 -97 -14 -20 -21 -47 -24 -95 -3
-62 -1 -70 27 -110 38 -52 106 -96 226 -147 110 -47 131 -60 138 -86 14 -55
-46 -97 -120 -83 -48 8 -66 17 -132 66 l-53 40 -71 -70 -70 -70 62 -45 c34
-25 87 -56 119 -68 71 -27 218 -37 291 -19 63 15 135 68 162 121 26 53 28 145
2 196 -26 53 -107 115 -199 151 -145 59 -169 73 -172 108 -3 27 1 33 25 42 43
14 133 -3 199 -39 l56 -31 61 60 61 61 -20 22 c-27 31 -148 85 -218 98 -78 14
-139 13 -206 -5z"/>
<path d="M14875 863 c-41 -8 -111 -37 -138 -55 -57 -40 -86 -141 -62 -212 26
-76 99 -130 263 -197 100 -41 121 -58 122 -100 0 -41 -33 -63 -93 -63 -58 1
-91 15 -162 70 l-48 36 -69 -69 -69 -68 38 -33 c81 -72 195 -112 318 -112 141
0 236 46 276 134 23 52 25 146 3 189 -20 40 -74 97 -91 97 -7 0 -13 4 -13 9 0
8 -77 44 -162 75 -58 21 -112 57 -116 77 -1 8 4 23 11 33 25 34 116 24 207
-20 l74 -37 58 63 c68 74 67 76 -32 129 -89 48 -232 72 -315 54z"/>
<path d="M7960 628 c0 -260 8 -337 41 -405 55 -113 147 -163 299 -163 155 0
242 49 299 170 26 55 26 56 29 343 l3 287 -105 0 -106 0 0 -260 c0 -277 -4
-304 -49 -345 -27 -23 -121 -26 -143 -4 -52 52 -53 57 -56 341 l-4 268 -104 0
-104 0 0 -232z"/>
<path d="M8865 847 c-3 -6 -4 -183 -3 -392 l3 -380 293 -3 292 -2 0 85 0 85
-190 0 -190 0 0 75 0 75 150 0 150 0 0 85 0 85 -150 0 -150 0 0 60 0 60 180 0
180 0 0 90 0 90 -280 0 c-216 0 -282 -3 -285 -13z"/>
<path d="M10480 769 l0 -90 100 3 100 3 0 -307 0 -308 105 0 105 0 0 305 0
305 100 0 100 0 0 90 0 90 -305 0 -305 0 0 -91z"/>
<path d="M11787 853 c-4 -3 -7 -181 -7 -395 l0 -388 105 0 105 0 0 150 0 150
145 0 145 0 0 -150 0 -150 105 0 105 0 0 395 0 395 -105 0 -105 0 0 -157 0
-158 -145 3 -145 3 0 155 0 154 -98 0 c-54 0 -102 -3 -105 -7z"/>
<path d="M12977 849 c-95 -22 -205 -107 -246 -189 -38 -74 -54 -174 -42 -257
20 -136 95 -238 219 -296 65 -31 72 -32 197 -32 126 0 132 1 198 33 84 40 145
100 182 178 37 77 46 210 21 300 -49 172 -202 275 -406 273 -47 -1 -102 -5
-123 -10z m198 -170 c51 -14 110 -73 124 -124 27 -98 5 -211 -50 -262 -87 -79
-254 -64 -316 29 -60 92 -46 245 29 315 52 49 131 64 213 42z"/>
<path d="M13752 578 l3 -283 31 -66 c56 -118 146 -169 300 -169 156 0 256 59
305 179 22 53 23 72 27 339 l4 282 -106 0 -105 0 -3 -274 c-3 -261 -4 -276
-24 -303 -51 -68 -157 -64 -199 7 -19 32 -20 54 -23 303 l-3 267 -106 0 -105
0 4 -282z"/>
<path d="M15490 465 l0 -395 293 2 292 3 3 83 3 82 -191 0 -190 0 0 75 0 75
145 0 145 0 0 85 0 85 -145 0 -145 0 0 63 0 62 180 -3 180 -3 0 91 0 90 -285
0 -285 0 0 -395z"/>
</g>
</svg>
